<?xml version="1.0" standalone="no"?>
<!DOCTYPE svg PUBLIC "-//W3C//DTD SVG 20010904//EN"
 "http://www.w3.org/TR/2001/REC-SVG-20010904/DTD/svg10.dtd">
<svg version="1.0" xmlns="http://www.w3.org/2000/svg"
 width="2048.000000pt" height="2048.000000pt" viewBox="0 0 2048.000000 2048.000000"
 preserveAspectRatio="xMidYMid meet">

<g transform="translate(0.000000,2048.000000) scale(0.100000,-0.100000)"
fill="#000000" stroke="none">
<path d="M6509 18532 c-31 -31 -326 -364 -657 -739 l-600 -681 -6 -74 c-4 -40
-22 -302 -41 -583 -34 -502 -34 -526 -45 -1557 -5 -576 -10 -1078 -10 -1117
l0 -71 510 -574 c280 -316 514 -577 519 -580 4 -3 309 -17 676 -31 416 -16
673 -29 681 -36 14 -11 164 -381 164 -404 0 -12 -54 -35 -86 -35 -5 0 -18 -6
-27 -12 -15 -12 -19 -82 -37 -728 -15 -539 -30 -870 -60 -1345 -45 -706 -46
-715 -64 -715 -8 0 -555 791 -1217 1757 -662 967 -1213 1767 -1224 1779 -23
26 -2243 1094 -2274 1094 -11 0 -22 -8 -25 -17 -3 -10 -121 -676 -261 -1481
l-255 -1463 -501 -1397 c-447 -1247 -569 -1589 -569 -1599 0 -30 152 143 802
913 425 503 779 927 785 942 7 15 123 464 258 997 135 534 250 980 255 993 5
12 16 22 23 22 14 0 1957 -2220 1968 -2249 10 -24 -417 -2668 -434 -2694 -8
-12 -385 -470 -837 -1017 -915 -1107 -900 -1088 -900 -1101 0 -5 7 -9 16 -9 8
0 578 276 1266 613 l1251 612 741 617 c446 372 749 618 762 618 15 0 135 -143
465 -552 244 -303 454 -566 467 -583 19 -26 78 -270 288 -1176 159 -684 264
-1158 262 -1179 -3 -27 -139 -241 -563 -885 -761 -1157 -721 -1095 -692 -1095
9 0 2321 1431 2407 1490 18 13 57 140 231 750 115 404 210 747 211 762 0 15
-151 460 -337 988 -229 651 -335 964 -328 971 6 6 615 40 1524 84 l1514 74 21
-22 c12 -12 403 -699 869 -1527 467 -828 855 -1513 863 -1522 9 -11 29 -18 48
-18 18 0 476 65 1018 144 l987 145 47 40 c80 67 1902 1896 1902 1909 0 7 -8
12 -17 12 -9 0 -588 -203 -1286 -452 -971 -345 -1273 -449 -1285 -441 -9 5
-177 308 -374 671 l-358 662 -64 817 c-38 485 -61 825 -55 834 5 10 323 123
875 309 522 177 874 301 883 312 8 9 234 483 502 1052 l488 1034 451 1380
c247 759 450 1392 450 1406 0 32 -1059 2006 -1076 2006 -8 0 -16 -10 -19 -22
-2 -13 -43 -468 -90 -1013 -47 -544 -88 -1014 -91 -1044 l-7 -54 -752 -852
c-715 -810 -753 -855 -778 -921 -15 -38 -117 -319 -227 -624 -110 -305 -209
-563 -218 -572 -16 -16 -2084 -698 -2116 -698 -9 0 -24 17 -35 37 -10 21 -193
433 -406 916 -260 591 -386 886 -383 902 3 13 272 472 599 1020 478 801 600
1000 624 1013 17 8 435 187 929 398 494 210 906 389 914 397 10 11 42 224 113
757 64 485 103 750 112 764 8 11 270 326 582 700 l567 678 576 432 c317 237
578 437 580 445 4 11 -2 12 -24 7 -77 -19 -1783 -580 -1809 -595 -16 -10 -219
-162 -451 -338 l-421 -321 -474 -242 c-261 -133 -480 -247 -486 -252 -21 -17
-16 -61 52 -538 36 -250 65 -471 65 -492 0 -32 -5 -41 -29 -56 -16 -9 -192
-100 -392 -202 l-362 -185 -596 -565 c-530 -502 -1266 -1209 -1637 -1572 -72
-70 -136 -128 -142 -128 -8 0 -12 18 -12 48 0 26 74 875 164 1887 90 1011 161
1845 159 1852 -3 8 -18 20 -33 28 -66 34 -4032 1745 -4045 1745 -8 0 -15 -6
-15 -12 0 -7 577 -778 1281 -1713 705 -935 1292 -1716 1305 -1735 l24 -36 -65
-1154 c-54 -968 -67 -1157 -80 -1166 -8 -6 -166 -41 -351 -78 -325 -65 -337
-67 -354 -49 -9 10 -169 365 -355 788 -187 424 -345 779 -352 790 -7 11 -436
261 -954 555 -613 349 -944 542 -949 555 -4 11 -98 439 -209 952 l-201 932
126 443 c69 244 172 609 230 812 57 203 101 373 96 378 -4 4 -33 -18 -63 -50z"/>
</g>
</svg>
